<svg aria-hidden="true" style="position: absolute; width: 0; height: 0; overflow: hidden;" version="1.1"
    xmlns="http://www.w3.org/2000/svg" xmlns:xlink="http://www.w3.org/1999/xlink">
    <defs>
        <symbol id="gmail" viewBox="0 0 32 32">
            <path
                d="M32 7.276v18.545c0 1.205-0.976 2.181-2.181 2.181h-5.092v-12.363l-8.727 6.547-8.727-6.547v12.364h-5.092c-1.205 0-2.181-0.977-2.181-2.181 0-0 0-0.001 0-0.001v0-18.545c0-2.697 3.079-4.237 5.236-2.619l10.764 8.073 10.764-8.073c2.156-1.617 5.236-0.079 5.236 2.619z">
            </path>
        </symbol>
        <symbol id="orcid" viewBox="0 0 32 32">
            <path
                d="M11 8c-0.552 0-1 0.448-1 1s0.448 1 1 1v0c0.552 0 1-0.448 1-1s-0.448-1-1-1v0zM10 11v11h2v-11h-2zM14 11v11h4.5c3.026 0 5.5-2.474 5.5-5.5s-2.474-5.5-5.5-5.5h-4.5zM16 13h2.5c1.944 0 3.5 1.556 3.5 3.5s-1.556 3.5-3.5 3.5h-2.5v-7z">
            </path>
        </symbol>
        <symbol id="google-scholar" viewBox="0 0 32 32">
            <path
                d="M14.667 5.333l-10.667 6.667h7.323c-0.027 0.101-0.072 0.192-0.094 0.297-0.061 0.323-0.109 0.678-0.109 1.047 0 4.761 4.867 4.224 4.867 4.224v1.214c0 0.492 0.645 0.322 0.721 1.32-0.323 0-6.742-0.185-6.742 4.146 0 4.347 5.667 4.133 5.667 4.133s6.544 0.293 6.544-5.083c0.003-3.212-3.747-4.258-3.747-5.547 0-1.305 2.826-1.689 2.826-4.745 0-1.336-0.091-2.288-0.69-2.964-0.047-0.047-0.077-0.079-0.122-0.109-0.010-0.010-0.023-0.017-0.034-0.026h0.164l2.76-2.070v2.831c-0 0.003-0 0.006-0 0.010 0 0.051 0.006 0.101 0.017 0.148l-0.001-0.004c-0.41 0.233-0.682 0.666-0.682 1.164 0 0.006 0 0.011 0 0.017v-0.001 1.333c-0 0.006-0 0.012-0 0.019 0 0.736 0.597 1.333 1.333 1.333s1.333-0.597 1.333-1.333c0-0.007-0-0.013-0-0.020v0.001-1.333c0-0.005 0-0.010 0-0.016 0-0.497-0.272-0.931-0.676-1.16l-0.007-0.003c0.010-0.043 0.016-0.093 0.016-0.144 0-0.003-0-0.007-0-0.010v0.001-3.833l2-1.5h-12zM15.589 9.404c0.384-0.017 0.77 0.076 1.138 0.284 0.276 0.139 0.535 0.337 0.766 0.583 0.476 0.476 0.876 1.167 1.091 1.982 0.507 1.935-0.152 3.795-1.518 4.148-1.352 0.383-2.859-0.879-3.38-2.799-0.231-0.936-0.199-1.841 0.063-2.563 0.002-0.009 0.008-0.017 0.010-0.026 0.004-0.002 0.011-0.008 0.016-0.010 0.075-0.285 0.197-0.541 0.346-0.753 0.274-0.4 0.636-0.672 1.086-0.792 0.127-0.031 0.255-0.049 0.383-0.055zM16.109 20.914c2.257-0.169 4.179 1.074 4.318 2.763 0.093 1.675-1.643 3.164-3.917 3.318-2.257 0.153-4.207-1.073-4.315-2.747-0.108-1.689 1.641-3.164 3.914-3.333z">
            </path>
        </symbol>
        <symbol id="researchgate" viewBox="0 0 32 32">
            <path
                d="M26.115 0c-1.091 0-2.011 0.253-2.764 0.753-0.751 0.503-1.293 1.248-1.617 2.24-0.056 0.16-0.108 0.356-0.145 0.556l-0.004 0.026c-0.034 0.17-0.070 0.411-0.099 0.654l-0.005 0.053c-0.032 0.277-0.056 0.613-0.066 0.952l-0 0.017c-0.013 0.376-0.017 0.828-0.017 1.355-0 0.032-0 0.069-0 0.107 0 0.439 0.007 0.877 0.020 1.313l-0.002-0.064c0.010 0.357 0.034 0.692 0.072 1.024l-0.005-0.055c0.032 0.292 0.069 0.534 0.113 0.772l-0.010-0.065h-0.007c0.043 0.229 0.095 0.425 0.16 0.615l-0.009-0.031c0.327 0.991 0.867 1.737 1.619 2.24 0.753 0.501 1.675 0.752 2.767 0.752 1.067 0 2.048-0.284 2.807-0.804 0.76-0.52 1.253-1.221 1.567-2.2 0.101-0.313 0.18-0.744 0.236-1.24 0.038-0.396 0.060-0.856 0.060-1.321 0-0.101-0.001-0.202-0.003-0.303l0 0.015v-1.093c0-0.127-0.063-0.189-0.187-0.189h-4.085c-0.125 0-0.187 0.063-0.187 0.188v1.275c0 0.125 0.061 0.187 0.187 0.187h2.221c0.075 0 0.112 0.040 0.112 0.115 0 0.48 0 0.827-0.048 1.153-0.051 0.325-0.133 0.596-0.196 0.808-0.144 0.513-0.464 0.885-0.851 1.168s-0.984 0.467-1.636 0.467c-0.727 0-1.201-0.2-1.613-0.471-0.408-0.271-0.689-0.605-0.893-1.22-0.101-0.298-0.171-0.645-0.195-1.003l-0.001-0.013c-0.018-0.227-0.034-0.531-0.044-0.836l-0.001-0.039c-0.013-0.347-0.019-0.763-0.019-1.252-0-0.030-0-0.065-0-0.1 0-0.405 0.007-0.808 0.020-1.209l-0.002 0.058c0.011-0.34 0.028-0.644 0.051-0.946l-0.004 0.072c0.027-0.371 0.097-0.716 0.206-1.043l-0.009 0.030c0.174-0.561 0.523-1.025 0.981-1.341l0.008-0.006c0.459-0.325 0.791-0.469 1.516-0.469 0.677 0 1.087 0.128 1.525 0.404 0.44 0.276 0.704 0.656 1.019 1.233 0.063 0.125 0.148 0.157 0.264 0.093l1.392-0.573c0.1-0.064 0.12-0.153 0.056-0.265-0.178-0.377-0.386-0.702-0.628-0.998l0.007 0.008c-0.259-0.313-0.557-0.581-0.89-0.8l-0.015-0.009c-0.346-0.228-0.746-0.415-1.173-0.539l-0.031-0.008c-0.435-0.126-0.935-0.198-1.451-0.198-0.025 0-0.050 0-0.075 0.001l0.004-0zM10.956 7.781c-2.253 0-4.048 0.115-5.729 0.115-1.528 0-3.055 0-4.009-0.039v1.108l1.451 0.267c0.992 0.192 1.565 0.651 1.565 3.019v15.051c0 2.369-0.573 2.827-1.565 3.017l-1.451 0.267v1.109c1.031-0.039 2.827-0.115 4.62-0.115 1.72 0 3.935 0.076 4.889 0.115v-1.108l-1.987-0.267c-1.031-0.153-1.565-0.649-1.565-3.019v-6.379c0.917 0.076 1.72 0.076 2.941 0.076 2.331 4.164 4.547 7.296 5.807 8.747 1.147 1.376 2.903 2.255 5.119 2.255 0.649 0 1.337-0.115 1.757-0.307v-0.992c-1.375 0-2.751-0.955-3.744-2.024-1.68-1.835-3.933-4.776-5.807-8.099 3.093-0.727 5.387-3.629 5.387-6.533 0-4.277-3.323-6.264-7.677-6.264zM10.269 9.501c3.208 0 5.119 1.68 5.119 4.736 0 3.017-2.063 5.043-5.463 5.043-1.299 0-1.872-0.040-2.751-0.115v-9.587c0.88-0.079 2.063-0.079 3.093-0.079z">
            </path>
        </symbol>
        <symbol id="facebook" viewBox="0 0 32 32">
            <path
                d="M18.32 12.44v-5.238h0.006c-0.004-0.032-0.006-0.069-0.006-0.106 0-0.001 0-0.001 0-0.002v0c0-0.678 0.549-1.229 1.226-1.229h4.16v-5.865h-6.133v0.020c-3.164 0.244-5.654 2.889-5.654 6.113v6.306h-3.627v5.867h3.627v13.693h6.4v-14.398h4.166l0.65-5.162h-4.816z">
            </path>
        </symbol>
        <symbol id="linkedin" viewBox="0 0 32 32">
            <path
                d="M7.814 3.936c0 2.175-1.749 3.937-3.907 3.937-2.156 0-3.906-1.762-3.906-3.937 0-2.173 1.75-3.936 3.906-3.936 2.158 0 3.907 1.763 3.907 3.936zM7.242 10.665h-6.607v21.335h6.607v-21.335zM17.803 10.665h-6.336v21.335h6.336v-11.199c0-3 1.382-4.785 4.025-4.785 2.43 0 3.598 1.714 3.598 4.785v11.199h6.574v-13.508c0-5.717-3.24-8.478-7.766-8.478s-6.431 3.525-6.431 3.525v-2.875z">
            </path>
        </symbol>
        <symbol id="scopus" viewBox="0 0 32 32">
            <path
                d="M32 25.412l-0.187-2.369c-1.901 1.029-3.927 1.435-5.953 1.435-4.425 0-7.947-3.709-7.947-8.633 0-5.204 3.46-8.413 7.511-8.413 2.556 0 4.52 0.404 6.389 1.433l0.187-2.337c-1.715-0.811-3.116-1.185-6.264-1.185-6.045 0-10.627 4.707-10.627 10.689 0 6.827 5.453 10.565 10.533 10.565 2.555 0 4.675-0.343 6.357-1.184zM12.061 20.799c0-2.96-2.619-4.3-5.143-5.796-1.964-1.184-4.052-1.995-4.052-4.176 0-1.62 1.185-3.397 3.523-3.397 2.025 0 3.427 0.312 5.204 1.372l0.156-2.463c-1.652-0.685-2.836-0.997-5.516-0.997-3.833 0-6.171 2.493-6.171 5.672s2.804 4.551 5.36 6.108c1.901 1.153 3.896 1.933 3.896 3.989 0 1.995-1.777 3.428-3.896 3.428-2.088 0-3.459-0.467-5.048-1.433l-0.375 2.463c1.62 0.747 3.272 1.091 5.547 1.091 3.18 0 6.513-1.964 6.513-5.86z">
            </path>
        </symbol>
        <symbol id="hamburger" viewBox="0 0 32 32">
            <path d="M6.4 11.733V9.6h19.2v2.133H6.4zm0 5.334h19.2v-2.133H6.4v2.133zm0 5.333h19.2v-2.133H6.4V22.4z" />
        </symbol>
        <symbol id="cross" viewBox="0 0 32 32">
            <path
                d="M23.733 10.304 22.229 8.8l-5.963 5.963L10.303 8.8l-1.504 1.504 5.963 5.963-5.963 5.963 1.504 1.504 5.963-5.963 5.963 5.963 1.504-1.504-5.963-5.963 5.963-5.963z" />
        </symbol>
        <symbol id="icon-menu" viewBox="0 0 32 32">
            <path d="M2 6h28v6h-28zM2 14h28v6h-28zM2 22h28v6h-28z"></path>
        </symbol>
        <symbol id="icon-burger" viewBox="0 0 46 32">
            <path
                d="M45.714 30.857h-45.714v-2.286h45.714v2.286zM45.714 17.143h-45.714v-2.286h45.714v2.286zM45.714 3.429h-45.714v-2.286h45.714v2.286z">
            </path>
        </symbol>
        <symbol id="icon-close" viewBox="0 0 32 32">
            <path
                d="M28.76 30.7l-12.78-13.28-13.28 12.78-1.4-1.44 13.28-12.78-12.78-13.28 1.44-1.4 12.78 13.28 13.28-12.78 1.4 1.44-13.28 12.78 12.78 13.28z">
            </path>
        </symbol>
    </defs>
</svg>